<svg width="100" height="100" viewBox="0 0 100 100" fill="none" xmlns="http://www.w3.org/2000/svg">
<path d="M43 0V13.166C27.944 16.03 16.03 27.944 13.166 43H0V57H13.166C16.03 72.056 27.944 83.97 43 86.834V100H57V86.834C72.056 83.97 83.97 72.056 86.834 57H100V43H86.834C83.97 27.944 72.056 16.03 57 13.166V0H43ZM50 22.5C53.6141 22.4901 57.1946 23.1947 60.5355 24.5732C63.8764 25.9517 66.9119 27.9769 69.4675 30.5325C72.0231 33.0881 74.0484 36.1236 75.4268 39.4645C76.8053 42.8054 77.5099 46.3859 77.5 50C77.5099 53.6141 76.8053 57.1946 75.4268 60.5355C74.0484 63.8764 72.0231 66.9119 69.4675 69.4675C66.9119 72.0231 63.8764 74.0484 60.5355 75.4268C57.1946 76.8053 53.6141 77.5099 50 77.5C46.3859 77.5099 42.8054 76.8053 39.4645 75.4268C36.1236 74.0484 33.0881 72.0231 30.5325 69.4675C27.9769 66.9119 25.9517 63.8764 24.5732 60.5355C23.1947 57.1946 22.4901 53.6141 22.5 50C22.4901 46.3859 23.1947 42.8054 24.5732 39.4645C25.9517 36.1236 27.9769 33.0881 30.5325 30.5325C33.0881 27.9769 36.1236 25.9517 39.4645 24.5732C42.8054 23.1947 46.3859 22.4901 50 22.5V22.5Z" fill="#0FA958"/>
</svg>
